<svg xmlns="http://www.w3.org/2000/svg" viewBox="0 0 900 390">
<defs>
<linearGradient id="body" x1="0" x2="1"><stop stop-color="#475260"/><stop offset=".36" stop-color="#aeb7c1"/><stop offset=".62" stop-color="#f2f4f6"/><stop offset="1" stop-color="#66717d"/></linearGradient>
<linearGradient id="glass" x1="0" y1="0" x2="1" y2="1"><stop stop-color="#111b24"/><stop offset=".5" stop-color="#34536a"/><stop offset="1" stop-color="#7891a4"/></linearGradient>
<filter id="shadow"><feDropShadow dx="0" dy="18" stdDeviation="14" flood-color="#18212c" flood-opacity=".30"/></filter>
</defs>
<ellipse cx="450" cy="334" rx="340" ry="31" fill="#151c25" opacity=".13"/>
<g filter="url(#shadow)">
        <path d="M122 102h582c46 0 84 38 84 84v107H83V173c0-39 17-71 39-71z" fill="url(#body)" stroke="#333e49" stroke-width="4"/>
        <path d="M149 126h539c30 0 54 24 54 54v38H134v-61c0-17 5-31 15-31z" fill="url(#glass)" stroke="#92a2b2" stroke-width="4"/>
        <path d="M240 126v92M355 126v92M470 126v92M585 126v92" stroke="#aeb9c4" stroke-width="4"/>
        <rect x="628" y="223" width="96" height="63" rx="8" fill="#202832" opacity=".5"/>
        <circle cx="245" cy="294" r="61" fill="#15191f" stroke="#77828d" stroke-width="10"/><circle cx="245" cy="294" r="32" fill="#b4bbc3"/><circle cx="651" cy="294" r="61" fill="#15191f" stroke="#77828d" stroke-width="10"/><circle cx="651" cy="294" r="32" fill="#b4bbc3"/>
        <path d="M85 228h44v34H82z" fill="#fff0c7"/><path d="M748 224h40v38h-44z" fill="#eb5962"/>
        </g>
<path d="M135 268c121-31 255-43 420-42 91 0 164 13 225 40" fill="none" stroke="#397dff" stroke-width="5" opacity=".88"/>
<circle cx="449" cy="40" r="9" fill="#397dff"/><path d="M449 49v39" stroke="#397dff" stroke-width="5"/>
</svg>